<svg xmlns="http://www.w3.org/2000/svg" xmlns:xlink="http://www.w3.org/1999/xlink" width="2000" zoomAndPan="magnify" viewBox="0 0 1500 749.999995" height="1000" preserveAspectRatio="xMidYMid meet" version="1.0"><defs><clipPath id="0dfef1cd19"><path d="M 322.976562 285 L 534 285 L 534 308 L 322.976562 308 Z M 322.976562 285 " clip-rule="nonzero"/></clipPath></defs><path fill="#000000" d="M 1103.242188 251.664062 L 972.269531 251.664062 L 922.257812 522.632812 L 955.816406 522.632812 C 957.273438 515.457031 959.707031 508.632812 963.117188 502.15625 C 965.214844 498.117188 967.675781 494.3125 970.5 490.742188 C 973.328125 487.171875 976.46875 483.90625 979.921875 480.9375 C 983.375 477.972656 987.078125 475.359375 991.035156 473.105469 C 994.988281 470.847656 999.121094 468.988281 1003.433594 467.523438 C 1005.53125 466.78125 1007.664062 466.152344 1009.832031 465.632812 C 1011.996094 465.113281 1014.183594 464.707031 1016.390625 464.414062 C 1018.597656 464.117188 1020.8125 463.9375 1023.039062 463.871094 C 1025.265625 463.804688 1027.488281 463.855469 1029.710938 464.019531 C 1031.929688 464.183594 1034.136719 464.460938 1036.328125 464.851562 C 1038.523438 465.242188 1040.6875 465.746094 1042.828125 466.359375 C 1044.96875 466.972656 1047.070312 467.695312 1049.136719 468.527344 C 1051.203125 469.359375 1053.21875 470.296875 1055.1875 471.335938 C 1057.542969 472.609375 1059.808594 474.019531 1061.988281 475.570312 C 1064.171875 477.117188 1066.25 478.796875 1068.222656 480.597656 C 1070.199219 482.402344 1072.058594 484.320312 1073.796875 486.351562 C 1075.539062 488.382812 1077.152344 490.511719 1078.632812 492.738281 C 1080.113281 494.964844 1081.453125 497.273438 1082.652344 499.664062 C 1083.851562 502.058594 1084.898438 504.511719 1085.796875 507.03125 C 1086.695312 509.550781 1087.4375 512.113281 1088.023438 514.722656 C 1088.605469 517.332031 1089.03125 519.96875 1089.292969 522.632812 L 1137.234375 522.632812 L 1176.898438 363.078125 Z M 988.613281 348.59375 L 1001.253906 279.871094 L 1084.5 279.871094 L 1129.9375 348.484375 Z M 988.613281 348.59375 " fill-opacity="1" fill-rule="nonzero"/><path fill="#000000" d="M 1045.054688 490.613281 C 1041.980469 489 1038.757812 487.777344 1035.382812 486.949219 C 1032.011719 486.121094 1028.589844 485.707031 1025.117188 485.710938 C 1020.117188 485.699219 1015.25 486.5 1010.515625 488.105469 C 1007.5 489.140625 1004.609375 490.453125 1001.84375 492.039062 C 999.078125 493.625 996.484375 495.457031 994.066406 497.539062 C 991.652344 499.617188 989.453125 501.90625 987.472656 504.40625 C 985.492188 506.902344 983.765625 509.566406 982.292969 512.394531 C 981.710938 513.730469 981.191406 515.089844 980.738281 516.472656 C 980.285156 517.859375 979.898438 519.261719 979.582031 520.683594 C 979.265625 522.109375 979.015625 523.542969 978.839844 524.988281 C 978.660156 526.433594 978.550781 527.886719 978.511719 529.34375 C 978.476562 530.800781 978.507812 532.253906 978.609375 533.710938 C 978.710938 535.164062 978.882812 536.609375 979.125 538.046875 C 979.367188 539.484375 979.679688 540.90625 980.058594 542.3125 C 980.4375 543.71875 980.886719 545.105469 981.398438 546.46875 C 981.914062 547.832031 982.492188 549.167969 983.132812 550.476562 C 983.777344 551.785156 984.480469 553.058594 985.246094 554.296875 C 986.011719 555.539062 986.835938 556.738281 987.71875 557.898438 C 988.601562 559.058594 989.535156 560.175781 990.527344 561.246094 C 991.515625 562.316406 992.554688 563.335938 993.644531 564.304688 C 994.730469 565.273438 995.863281 566.1875 997.039062 567.050781 C 998.21875 567.910156 999.433594 568.710938 1000.6875 569.453125 C 1001.941406 570.195312 1003.230469 570.878906 1004.550781 571.496094 C 1005.871094 572.113281 1007.21875 572.667969 1008.589844 573.15625 C 1009.964844 573.644531 1011.359375 574.066406 1012.773438 574.417969 C 1014.1875 574.773438 1015.617188 575.058594 1017.058594 575.273438 C 1018.5 575.488281 1019.949219 575.636719 1021.40625 575.710938 C 1022.859375 575.789062 1024.316406 575.792969 1025.773438 575.726562 C 1027.230469 575.664062 1028.679688 575.527344 1030.125 575.324219 C 1031.566406 575.117188 1032.996094 574.84375 1034.414062 574.5 C 1035.832031 574.160156 1037.230469 573.746094 1038.605469 573.269531 C 1039.984375 572.792969 1041.335938 572.25 1042.660156 571.640625 C 1043.984375 571.03125 1045.277344 570.359375 1046.535156 569.628906 C 1047.796875 568.894531 1049.019531 568.101562 1050.203125 567.25 C 1051.386719 566.398438 1052.523438 565.492188 1053.621094 564.53125 C 1054.714844 563.570312 1055.761719 562.558594 1056.761719 561.496094 C 1057.757812 560.433594 1058.703125 559.324219 1059.59375 558.171875 C 1060.484375 557.015625 1061.316406 555.824219 1062.09375 554.589844 C 1062.867188 553.355469 1063.582031 552.085938 1064.234375 550.78125 C 1064.886719 549.480469 1065.476562 548.148438 1066 546.789062 C 1066.523438 545.425781 1066.980469 544.046875 1067.371094 542.640625 C 1067.761719 541.238281 1068.082031 539.816406 1068.335938 538.382812 C 1068.589844 536.945312 1068.769531 535.503906 1068.882812 534.050781 C 1069 532.597656 1069.042969 531.140625 1069.015625 529.683594 C 1068.988281 528.226562 1068.890625 526.773438 1068.722656 525.328125 C 1068.554688 523.878906 1068.316406 522.445312 1068.011719 521.019531 C 1067.703125 519.59375 1067.328125 518.1875 1066.886719 516.800781 C 1066.445312 515.410156 1065.933594 514.046875 1065.359375 512.707031 C 1064.785156 511.367188 1064.148438 510.058594 1063.445312 508.78125 C 1062.746094 507.503906 1061.984375 506.261719 1061.164062 505.058594 C 1060.34375 503.851562 1059.464844 502.691406 1058.53125 501.570312 C 1057.597656 500.453125 1056.613281 499.378906 1055.578125 498.355469 C 1054.539062 497.332031 1053.457031 496.359375 1052.324219 495.4375 C 1051.195312 494.519531 1050.023438 493.65625 1048.808594 492.851562 C 1047.59375 492.042969 1046.34375 491.296875 1045.054688 490.613281 Z M 1045.054688 490.613281 " fill-opacity="1" fill-rule="nonzero"/><path fill="#000000" d="M 687.449219 490.613281 C 684.371094 489 681.148438 487.777344 677.777344 486.949219 C 674.402344 486.121094 670.980469 485.707031 667.507812 485.710938 C 662.507812 485.699219 657.640625 486.5 652.90625 488.105469 C 649.890625 489.140625 647 490.453125 644.234375 492.039062 C 641.46875 493.625 638.875 495.457031 636.460938 497.539062 C 634.042969 499.617188 631.84375 501.90625 629.863281 504.40625 C 627.886719 506.902344 626.160156 509.566406 624.6875 512.394531 C 624.101562 513.730469 623.582031 515.089844 623.128906 516.472656 C 622.675781 517.859375 622.292969 519.261719 621.972656 520.683594 C 621.65625 522.109375 621.410156 523.542969 621.230469 524.988281 C 621.050781 526.433594 620.941406 527.886719 620.90625 529.34375 C 620.867188 530.800781 620.898438 532.253906 621 533.710938 C 621.101562 535.164062 621.277344 536.609375 621.519531 538.046875 C 621.761719 539.484375 622.070312 540.90625 622.449219 542.3125 C 622.828125 543.71875 623.277344 545.105469 623.789062 546.46875 C 624.304688 547.832031 624.882812 549.167969 625.523438 550.476562 C 626.167969 551.785156 626.871094 553.058594 627.636719 554.296875 C 628.402344 555.539062 629.226562 556.738281 630.109375 557.898438 C 630.992188 559.058594 631.925781 560.175781 632.917969 561.246094 C 633.90625 562.316406 634.945312 563.335938 636.035156 564.304688 C 637.125 565.273438 638.257812 566.1875 639.433594 567.050781 C 640.609375 567.910156 641.824219 568.710938 643.078125 569.453125 C 644.335938 570.195312 645.621094 570.878906 646.941406 571.496094 C 648.261719 572.113281 649.609375 572.667969 650.984375 573.15625 C 652.355469 573.644531 653.75 574.066406 655.164062 574.417969 C 656.578125 574.773438 658.007812 575.058594 659.449219 575.273438 C 660.890625 575.488281 662.339844 575.636719 663.796875 575.710938 C 665.253906 575.789062 666.707031 575.792969 668.164062 575.726562 C 669.621094 575.664062 671.070312 575.527344 672.515625 575.324219 C 673.957031 575.117188 675.390625 574.84375 676.804688 574.5 C 678.222656 574.160156 679.621094 573.746094 680.996094 573.269531 C 682.375 572.792969 683.726562 572.25 685.050781 571.640625 C 686.375 571.03125 687.667969 570.359375 688.929688 569.628906 C 690.1875 568.894531 691.410156 568.101562 692.59375 567.25 C 693.777344 566.398438 694.917969 565.492188 696.011719 564.53125 C 697.109375 563.570312 698.15625 562.558594 699.152344 561.496094 C 700.148438 560.433594 701.09375 559.324219 701.984375 558.171875 C 702.875 557.015625 703.710938 555.824219 704.484375 554.589844 C 705.257812 553.355469 705.972656 552.085938 706.625 550.78125 C 707.277344 549.480469 707.867188 548.148438 708.390625 546.789062 C 708.914062 545.425781 709.371094 544.046875 709.761719 542.640625 C 710.152344 541.238281 710.472656 539.816406 710.726562 538.382812 C 710.980469 536.945312 711.164062 535.503906 711.277344 534.050781 C 711.390625 532.597656 711.433594 531.140625 711.40625 529.683594 C 711.378906 528.226562 711.28125 526.773438 711.113281 525.328125 C 710.945312 523.878906 710.707031 522.445312 710.402344 521.019531 C 710.09375 519.59375 709.71875 518.1875 709.277344 516.800781 C 708.835938 515.410156 708.328125 514.046875 707.753906 512.707031 C 707.175781 511.367188 706.539062 510.058594 705.839844 508.78125 C 705.136719 507.503906 704.378906 506.261719 703.554688 505.058594 C 702.734375 503.851562 701.859375 502.691406 700.925781 501.570312 C 699.992188 500.453125 699.007812 499.378906 697.96875 498.355469 C 696.933594 497.332031 695.847656 496.359375 694.71875 495.4375 C 693.585938 494.519531 692.414062 493.65625 691.199219 492.851562 C 689.984375 492.042969 688.734375 491.296875 687.449219 490.613281 Z M 687.449219 490.613281 " fill-opacity="1" fill-rule="nonzero"/><path fill="#000000" d="M 554.734375 168.457031 L 545.363281 219.535156 L 578.269531 219.535156 C 578.984375 219.535156 579.691406 219.605469 580.394531 219.746094 C 581.097656 219.886719 581.777344 220.09375 582.4375 220.367188 C 583.101562 220.640625 583.726562 220.976562 584.324219 221.371094 C 584.917969 221.769531 585.46875 222.222656 585.972656 222.726562 C 586.480469 223.234375 586.929688 223.78125 587.328125 224.378906 C 587.726562 224.972656 588.0625 225.597656 588.335938 226.261719 C 588.609375 226.921875 588.816406 227.601562 588.957031 228.304688 C 589.09375 229.003906 589.164062 229.710938 589.164062 230.429688 C 589.164062 231.144531 589.09375 231.851562 588.957031 232.550781 C 588.816406 233.253906 588.609375 233.933594 588.335938 234.597656 C 588.0625 235.257812 587.726562 235.882812 587.328125 236.480469 C 586.929688 237.074219 586.480469 237.625 585.972656 238.128906 C 585.46875 238.632812 584.917969 239.085938 584.324219 239.484375 C 583.726562 239.878906 583.101562 240.214844 582.4375 240.488281 C 581.777344 240.761719 581.097656 240.96875 580.394531 241.109375 C 579.691406 241.25 578.984375 241.320312 578.269531 241.320312 L 541.332031 241.320312 L 533.160156 285.972656 L 620.21875 285.972656 C 620.933594 285.972656 621.644531 286.042969 622.34375 286.179688 C 623.046875 286.320312 623.726562 286.527344 624.386719 286.800781 C 625.050781 287.074219 625.675781 287.410156 626.273438 287.808594 C 626.867188 288.203125 627.417969 288.65625 627.921875 289.160156 C 628.429688 289.667969 628.882812 290.21875 629.277344 290.8125 C 629.675781 291.40625 630.011719 292.035156 630.285156 292.695312 C 630.558594 293.355469 630.765625 294.035156 630.90625 294.738281 C 631.046875 295.4375 631.113281 296.148438 631.113281 296.863281 C 631.113281 297.578125 631.046875 298.285156 630.90625 298.988281 C 630.765625 299.6875 630.558594 300.371094 630.285156 301.03125 C 630.011719 301.691406 629.675781 302.320312 629.277344 302.914062 C 628.882812 303.507812 628.429688 304.058594 627.921875 304.5625 C 627.417969 305.070312 626.867188 305.519531 626.273438 305.917969 C 625.675781 306.316406 625.050781 306.652344 624.386719 306.925781 C 623.726562 307.199219 623.046875 307.40625 622.34375 307.542969 C 621.644531 307.683594 620.933594 307.753906 620.21875 307.753906 L 529.128906 307.753906 L 521.71875 347.832031 L 583.171875 347.832031 C 583.886719 347.832031 584.597656 347.902344 585.296875 348.042969 C 586 348.179688 586.679688 348.386719 587.34375 348.660156 C 588.003906 348.933594 588.632812 349.269531 589.226562 349.667969 C 589.820312 350.066406 590.371094 350.515625 590.878906 351.023438 C 591.382812 351.527344 591.835938 352.078125 592.230469 352.671875 C 592.628906 353.265625 592.964844 353.894531 593.238281 354.554688 C 593.511719 355.214844 593.71875 355.898438 593.859375 356.597656 C 594 357.300781 594.070312 358.007812 594.070312 358.722656 C 594.070312 359.4375 594 360.144531 593.859375 360.847656 C 593.71875 361.546875 593.511719 362.230469 593.238281 362.890625 C 592.964844 363.550781 592.628906 364.179688 592.230469 364.773438 C 591.835938 365.367188 591.382812 365.917969 590.878906 366.421875 C 590.371094 366.929688 589.820312 367.382812 589.226562 367.777344 C 588.632812 368.175781 588.003906 368.511719 587.34375 368.785156 C 586.679688 369.058594 586 369.265625 585.296875 369.40625 C 584.597656 369.542969 583.886719 369.613281 583.171875 369.613281 L 517.796875 369.613281 L 511.367188 404.355469 L 544.382812 404.355469 C 545.097656 404.355469 545.804688 404.425781 546.507812 404.566406 C 547.210938 404.703125 547.890625 404.910156 548.550781 405.183594 C 549.214844 405.457031 549.839844 405.792969 550.4375 406.191406 C 551.03125 406.589844 551.582031 407.039062 552.085938 407.546875 C 552.59375 408.050781 553.042969 408.601562 553.441406 409.195312 C 553.839844 409.789062 554.175781 410.417969 554.449219 411.078125 C 554.722656 411.738281 554.929688 412.421875 555.070312 413.121094 C 555.207031 413.824219 555.277344 414.53125 555.277344 415.246094 C 555.277344 415.960938 555.207031 416.667969 555.070312 417.371094 C 554.929688 418.074219 554.722656 418.753906 554.449219 419.414062 C 554.175781 420.074219 553.839844 420.703125 553.441406 421.296875 C 553.042969 421.890625 552.59375 422.441406 552.085938 422.949219 C 551.582031 423.453125 551.03125 423.90625 550.4375 424.300781 C 549.839844 424.699219 549.214844 425.035156 548.550781 425.308594 C 547.890625 425.582031 547.210938 425.789062 546.507812 425.929688 C 545.804688 426.066406 545.097656 426.136719 544.382812 426.136719 L 507.445312 426.136719 L 489.792969 522.632812 L 598.207031 522.632812 C 599.667969 515.457031 602.101562 508.632812 605.507812 502.15625 C 607.605469 498.117188 610.066406 494.3125 612.894531 490.742188 C 615.71875 487.171875 618.859375 483.90625 622.3125 480.9375 C 625.765625 477.972656 629.472656 475.359375 633.425781 473.105469 C 637.378906 470.847656 641.511719 468.988281 645.824219 467.523438 C 647.929688 466.785156 650.066406 466.152344 652.238281 465.636719 C 654.40625 465.117188 656.597656 464.707031 658.808594 464.414062 C 661.019531 464.121094 663.242188 463.941406 665.472656 463.875 C 667.703125 463.808594 669.929688 463.859375 672.15625 464.023438 C 674.378906 464.183594 676.589844 464.460938 678.789062 464.855469 C 680.984375 465.246094 683.15625 465.746094 685.300781 466.363281 C 687.445312 466.976562 689.550781 467.699219 691.621094 468.53125 C 693.691406 469.359375 695.714844 470.296875 697.691406 471.335938 C 700.035156 472.617188 702.296875 474.035156 704.46875 475.589844 C 706.644531 477.148438 708.714844 478.828125 710.6875 480.632812 C 712.65625 482.441406 714.511719 484.359375 716.25 486.390625 C 717.988281 488.421875 719.59375 490.550781 721.074219 492.777344 C 722.554688 495 723.894531 497.308594 725.097656 499.695312 C 726.296875 502.085938 727.347656 504.535156 728.25 507.050781 C 729.152344 509.566406 729.902344 512.128906 730.496094 514.734375 C 731.085938 517.339844 731.519531 519.972656 731.792969 522.628906 L 900.136719 522.628906 L 965.1875 168.457031 Z M 554.734375 168.457031 " fill-opacity="1" fill-rule="nonzero"/><path fill="#000000" d="M 545.363281 219.535156 L 541.332031 241.320312 L 449.261719 241.320312 C 448.542969 241.320312 447.835938 241.25 447.132812 241.109375 C 446.433594 240.96875 445.75 240.761719 445.089844 240.488281 C 444.429688 240.214844 443.800781 239.878906 443.207031 239.484375 C 442.613281 239.085938 442.0625 238.632812 441.554688 238.128906 C 441.050781 237.625 440.597656 237.074219 440.199219 236.480469 C 439.804688 235.882812 439.46875 235.257812 439.195312 234.597656 C 438.917969 233.933594 438.714844 233.253906 438.574219 232.550781 C 438.433594 231.851562 438.363281 231.144531 438.363281 230.429688 C 438.363281 229.710938 438.433594 229.003906 438.574219 228.304688 C 438.714844 227.601562 438.917969 226.921875 439.195312 226.261719 C 439.46875 225.597656 439.804688 224.972656 440.199219 224.378906 C 440.597656 223.78125 441.050781 223.234375 441.554688 222.726562 C 442.0625 222.222656 442.613281 221.769531 443.207031 221.371094 C 443.800781 220.976562 444.429688 220.640625 445.089844 220.367188 C 445.75 220.09375 446.433594 219.886719 447.132812 219.746094 C 447.835938 219.605469 448.542969 219.535156 449.261719 219.535156 Z M 545.363281 219.535156 " fill-opacity="1" fill-rule="nonzero"/><g clip-path="url(#0dfef1cd19)"><path fill="#000000" d="M 533.160156 285.972656 L 529.128906 307.753906 L 333.324219 307.753906 C 332.609375 307.753906 331.902344 307.683594 331.199219 307.542969 C 330.5 307.40625 329.816406 307.199219 329.15625 306.925781 C 328.496094 306.652344 327.867188 306.316406 327.273438 305.917969 C 326.675781 305.519531 326.128906 305.070312 325.621094 304.5625 C 325.117188 304.058594 324.664062 303.507812 324.265625 302.914062 C 323.867188 302.320312 323.535156 301.691406 323.257812 301.03125 C 322.984375 300.371094 322.777344 299.6875 322.640625 298.988281 C 322.5 298.285156 322.429688 297.578125 322.429688 296.863281 C 322.429688 296.148438 322.5 295.4375 322.640625 294.738281 C 322.777344 294.035156 322.984375 293.355469 323.257812 292.695312 C 323.535156 292.035156 323.867188 291.40625 324.265625 290.8125 C 324.664062 290.21875 325.117188 289.667969 325.621094 289.160156 C 326.128906 288.65625 326.675781 288.203125 327.273438 287.808594 C 327.867188 287.410156 328.496094 287.074219 329.15625 286.800781 C 329.816406 286.527344 330.5 286.320312 331.199219 286.179688 C 331.902344 286.042969 332.609375 285.972656 333.324219 285.972656 Z M 533.160156 285.972656 " fill-opacity="1" fill-rule="nonzero"/></g><path fill="#000000" d="M 521.71875 347.832031 L 517.796875 369.613281 L 380.832031 369.613281 C 380.117188 369.613281 379.410156 369.542969 378.707031 369.40625 C 378.003906 369.265625 377.324219 369.058594 376.664062 368.785156 C 376.003906 368.511719 375.375 368.175781 374.78125 367.777344 C 374.183594 367.382812 373.632812 366.929688 373.128906 366.421875 C 372.621094 365.917969 372.171875 365.367188 371.773438 364.773438 C 371.375 364.179688 371.039062 363.550781 370.765625 362.890625 C 370.492188 362.230469 370.285156 361.546875 370.144531 360.847656 C 370.007812 360.144531 369.9375 359.4375 369.9375 358.722656 C 369.9375 358.007812 370.007812 357.300781 370.144531 356.597656 C 370.285156 355.898438 370.492188 355.214844 370.765625 354.554688 C 371.039062 353.894531 371.375 353.265625 371.773438 352.671875 C 372.171875 352.078125 372.621094 351.527344 373.128906 351.023438 C 373.632812 350.515625 374.183594 350.066406 374.78125 349.667969 C 375.375 349.269531 376.003906 348.933594 376.664062 348.660156 C 377.324219 348.386719 378.003906 348.179688 378.707031 348.042969 C 379.410156 347.902344 380.117188 347.832031 380.832031 347.832031 Z M 521.71875 347.832031 " fill-opacity="1" fill-rule="nonzero"/><path fill="#000000" d="M 511.367188 404.355469 L 509.296875 415.683594 C 509.277344 416.199219 509.207031 416.707031 509.078125 417.207031 L 507.445312 426.136719 L 438.472656 426.136719 C 437.757812 426.136719 437.050781 426.066406 436.347656 425.929688 C 435.644531 425.789062 434.964844 425.582031 434.304688 425.308594 C 433.640625 425.035156 433.015625 424.699219 432.417969 424.300781 C 431.824219 423.90625 431.273438 423.453125 430.769531 422.949219 C 430.261719 422.441406 429.8125 421.890625 429.414062 421.296875 C 429.015625 420.703125 428.679688 420.074219 428.40625 419.414062 C 428.132812 418.753906 427.925781 418.074219 427.785156 417.371094 C 427.648438 416.667969 427.578125 415.960938 427.578125 415.246094 C 427.578125 414.53125 427.648438 413.824219 427.785156 413.121094 C 427.925781 412.421875 428.132812 411.738281 428.40625 411.078125 C 428.679688 410.417969 429.015625 409.789062 429.414062 409.195312 C 429.8125 408.601562 430.261719 408.050781 430.769531 407.546875 C 431.273438 407.039062 431.824219 406.589844 432.417969 406.191406 C 433.015625 405.792969 433.640625 405.457031 434.304688 405.183594 C 434.964844 404.910156 435.644531 404.703125 436.347656 404.566406 C 437.050781 404.425781 437.757812 404.355469 438.472656 404.355469 Z M 511.367188 404.355469 " fill-opacity="1" fill-rule="nonzero"/></svg>