<svg xmlns="http://www.w3.org/2000/svg" xmlns:xlink="http://www.w3.org/1999/xlink" width="2000" zoomAndPan="magnify" viewBox="0 0 1500 749.999995" height="1000" preserveAspectRatio="xMidYMid meet" version="1.0"><defs><clipPath id="fd1b2729c5"><path d="M 816 196 L 1284.726562 196 L 1284.726562 598 L 816 598 Z M 816 196 " clip-rule="nonzero"/></clipPath><clipPath id="fddbcf29e2"><path d="M 972 464 L 1196 464 L 1196 686.886719 L 972 686.886719 Z M 972 464 " clip-rule="nonzero"/></clipPath><clipPath id="63da586e24"><path d="M 482 464 L 706 464 L 706 686.886719 L 482 686.886719 Z M 482 464 " clip-rule="nonzero"/></clipPath><clipPath id="c875253e82"><path d="M 215.226562 419 L 528 419 L 528 465 L 215.226562 465 Z M 215.226562 419 " clip-rule="nonzero"/></clipPath></defs><path fill="#ff914d" d="M 504.894531 597.820312 L 415.765625 597.820312 C 403.464844 597.820312 393.484375 587.835938 393.484375 575.535156 C 393.484375 563.238281 403.464844 553.253906 415.765625 553.253906 L 504.894531 553.253906 C 517.191406 553.253906 527.175781 563.238281 527.175781 575.535156 C 527.175781 587.835938 517.191406 597.820312 504.894531 597.820312 Z M 504.894531 597.820312 " fill-opacity="1" fill-rule="nonzero"/><g clip-path="url(#fd1b2729c5)"><path fill="#ff914d" d="M 1229.058594 597.820312 L 1173.351562 597.820312 C 1161.054688 597.820312 1151.070312 587.835938 1151.070312 575.535156 C 1151.070312 563.238281 1161.054688 553.253906 1173.351562 553.253906 L 1210.5625 553.253906 L 1240.601562 393.179688 C 1240.199219 311.273438 1170.234375 241.308594 1084.226562 241.308594 L 937.921875 241.308594 L 867.019531 553.253906 L 995.097656 553.253906 C 1007.398438 553.253906 1017.378906 563.238281 1017.378906 575.535156 C 1017.378906 587.835938 1007.398438 597.820312 995.097656 597.820312 L 839.125 597.820312 C 832.347656 597.820312 825.933594 594.742188 821.699219 589.441406 C 817.464844 584.183594 815.859375 577.230469 817.375 570.632812 L 898.394531 214.121094 C 900.710938 203.917969 909.710938 196.742188 920.140625 196.742188 L 1084.226562 196.742188 C 1194.789062 196.742188 1284.761719 286.71875 1284.761719 397.28125 L 1250.9375 579.636719 C 1248.976562 590.199219 1239.796875 597.820312 1229.058594 597.820312 Z M 1229.058594 597.820312 " fill-opacity="1" fill-rule="nonzero"/></g><g clip-path="url(#fddbcf29e2)"><path fill="#ff914d" d="M 1084.226562 686.945312 C 1022.816406 686.945312 972.816406 636.992188 972.816406 575.535156 C 972.816406 514.082031 1022.816406 464.125 1084.226562 464.125 C 1145.632812 464.125 1195.636719 514.082031 1195.636719 575.535156 C 1195.636719 636.992188 1145.632812 686.945312 1084.226562 686.945312 Z M 1084.226562 508.691406 C 1047.371094 508.691406 1017.378906 538.683594 1017.378906 575.535156 C 1017.378906 612.390625 1047.371094 642.382812 1084.226562 642.382812 C 1121.078125 642.382812 1151.070312 612.390625 1151.070312 575.535156 C 1151.070312 538.683594 1121.078125 508.691406 1084.226562 508.691406 Z M 1084.226562 508.691406 " fill-opacity="1" fill-rule="nonzero"/></g><g clip-path="url(#63da586e24)"><path fill="#ff914d" d="M 594.019531 686.945312 C 532.613281 686.945312 482.613281 636.992188 482.613281 575.535156 C 482.613281 514.082031 532.613281 464.125 594.019531 464.125 C 655.429688 464.125 705.429688 514.082031 705.429688 575.535156 C 705.429688 636.992188 655.429688 686.945312 594.019531 686.945312 Z M 594.019531 508.691406 C 557.167969 508.691406 527.175781 538.683594 527.175781 575.535156 C 527.175781 612.390625 557.167969 642.382812 594.019531 642.382812 C 630.875 642.382812 660.867188 612.390625 660.867188 575.535156 C 660.867188 538.683594 630.875 508.691406 594.019531 508.691406 Z M 594.019531 508.691406 " fill-opacity="1" fill-rule="nonzero"/></g><path fill="#ff914d" d="M 504.894531 196.742188 L 326.636719 196.742188 C 314.339844 196.742188 304.355469 186.761719 304.355469 174.460938 C 304.355469 162.160156 314.339844 152.179688 326.636719 152.179688 L 504.894531 152.179688 C 517.191406 152.179688 527.175781 162.160156 527.175781 174.460938 C 527.175781 186.761719 517.191406 196.742188 504.894531 196.742188 Z M 504.894531 196.742188 " fill-opacity="1" fill-rule="nonzero"/><path fill="#ff914d" d="M 504.894531 330.433594 L 282.074219 330.433594 C 269.773438 330.433594 259.792969 320.453125 259.792969 308.152344 C 259.792969 295.851562 269.773438 285.871094 282.074219 285.871094 L 504.894531 285.871094 C 517.191406 285.871094 527.175781 295.851562 527.175781 308.152344 C 527.175781 320.453125 517.191406 330.433594 504.894531 330.433594 Z M 504.894531 330.433594 " fill-opacity="1" fill-rule="nonzero"/><g clip-path="url(#c875253e82)"><path fill="#ff914d" d="M 504.894531 464.125 L 237.507812 464.125 C 225.210938 464.125 215.226562 454.144531 215.226562 441.84375 C 215.226562 429.546875 225.210938 419.5625 237.507812 419.5625 L 504.894531 419.5625 C 517.191406 419.5625 527.175781 429.546875 527.175781 441.84375 C 527.175781 454.144531 517.191406 464.125 504.894531 464.125 Z M 504.894531 464.125 " fill-opacity="1" fill-rule="nonzero"/></g><path fill="#ff914d" d="M 839.125 597.820312 L 683.148438 597.820312 C 670.851562 597.820312 660.867188 587.835938 660.867188 575.535156 C 660.867188 563.238281 670.851562 553.253906 683.148438 553.253906 L 821.34375 553.253906 L 922.589844 107.613281 L 415.765625 107.613281 C 403.464844 107.613281 393.484375 97.632812 393.484375 85.332031 C 393.484375 73.035156 403.464844 63.050781 415.765625 63.050781 L 950.53125 63.050781 C 957.308594 63.050781 963.722656 66.125 967.957031 71.429688 C 972.191406 76.6875 973.796875 83.640625 972.28125 90.234375 L 860.871094 580.4375 C 858.554688 590.644531 849.507812 597.820312 839.125 597.820312 Z M 839.125 597.820312 " fill-opacity="1" fill-rule="nonzero"/></svg>