<svg xmlns="http://www.w3.org/2000/svg" xmlns:xlink="http://www.w3.org/1999/xlink" width="2000" zoomAndPan="magnify" viewBox="0 0 1500 749.999995" height="1000" preserveAspectRatio="xMidYMid meet" version="1.0"><defs><clipPath id="18d3346581"><path d="M 509.746094 137.449219 L 985 137.449219 L 985 612.199219 L 509.746094 612.199219 Z M 509.746094 137.449219 " clip-rule="nonzero"/></clipPath></defs><path fill="#000000" d="M 747.753906 445.851562 C 740.597656 445.851562 733.441406 443.128906 727.980469 437.667969 L 631.90625 341.714844 C 629.71875 339.527344 629.71875 335.984375 631.90625 333.792969 L 663.535156 302.203125 C 665.722656 300.019531 669.269531 300.019531 671.464844 302.203125 L 747.753906 378.398438 L 948.734375 177.664062 C 950.921875 175.480469 954.46875 175.480469 956.664062 177.664062 L 988.292969 209.253906 C 990.480469 211.4375 990.480469 214.980469 988.292969 217.175781 L 767.539062 437.667969 C 762.074219 443.121094 754.917969 445.851562 747.753906 445.851562 Z M 747.753906 445.851562 " fill-opacity="1" fill-rule="nonzero"/><g clip-path="url(#18d3346581)"><path fill="#000000" d="M 920.152344 308 C 928.21875 328.742188 932.65625 351.273438 932.65625 374.824219 C 932.65625 476.910156 849.5 559.964844 747.285156 559.964844 C 645.070312 559.964844 561.914062 476.910156 561.914062 374.824219 C 561.914062 272.738281 645.070312 189.683594 747.285156 189.683594 C 793.632812 189.683594 836.066406 206.765625 868.601562 234.941406 L 905.605469 197.984375 C 862.007812 158.949219 806.289062 137.59375 747.285156 137.59375 C 683.839844 137.59375 624.195312 162.269531 579.332031 207.078125 C 534.46875 251.886719 509.761719 311.457031 509.761719 374.824219 C 509.761719 438.191406 534.46875 497.761719 579.332031 542.570312 C 624.1875 587.378906 683.839844 612.054688 747.285156 612.054688 C 810.730469 612.054688 870.375 587.378906 915.238281 542.570312 C 960.101562 497.761719 984.808594 438.191406 984.808594 374.824219 C 984.808594 337.28125 976.136719 301.070312 959.734375 268.476562 Z M 920.152344 308 " fill-opacity="1" fill-rule="nonzero"/></g><path fill="#000000" d="M 607.898438 389.503906 L 588.933594 389.503906 C 585.003906 389.503906 581.824219 386.320312 581.824219 382.402344 C 581.824219 378.476562 585.011719 375.300781 588.933594 375.300781 L 607.898438 375.300781 C 611.828125 375.300781 615.007812 378.484375 615.007812 382.402344 C 615.007812 386.328125 611.828125 389.503906 607.898438 389.503906 Z M 607.898438 389.503906 " fill-opacity="1" fill-rule="nonzero"/><path fill="#000000" d="M 754.394531 537.710938 C 750.464844 537.710938 747.285156 534.535156 747.285156 530.609375 L 747.285156 511.667969 C 747.285156 507.746094 750.464844 504.566406 754.394531 504.566406 C 758.324219 504.566406 761.503906 507.746094 761.503906 511.667969 L 761.503906 530.609375 C 761.503906 534.535156 758.324219 537.710938 754.394531 537.710938 Z M 754.394531 537.710938 " fill-opacity="1" fill-rule="nonzero"/><path fill="#000000" d="M 754.394531 241.296875 C 750.464844 241.296875 747.285156 238.113281 747.285156 234.195312 L 747.285156 215.253906 C 747.285156 211.328125 750.464844 208.152344 754.394531 208.152344 C 758.324219 208.152344 761.503906 211.335938 761.503906 215.253906 L 761.503906 234.195312 C 761.503906 238.113281 758.324219 241.296875 754.394531 241.296875 Z M 754.394531 241.296875 " fill-opacity="1" fill-rule="nonzero"/><path fill="#000000" d="M 906.105469 389.980469 L 887.140625 389.980469 C 883.210938 389.980469 880.03125 386.796875 880.03125 382.878906 C 880.03125 378.960938 883.210938 375.777344 887.140625 375.777344 L 906.105469 375.777344 C 910.035156 375.777344 913.214844 378.960938 913.214844 382.878906 C 913.214844 386.796875 910.035156 389.980469 906.105469 389.980469 Z M 906.105469 389.980469 " fill-opacity="1" fill-rule="nonzero"/></svg>