<svg xmlns="http://www.w3.org/2000/svg" xmlns:xlink="http://www.w3.org/1999/xlink" width="2000" zoomAndPan="magnify" viewBox="0 0 1500 749.999995" height="1000" preserveAspectRatio="xMidYMid meet" version="1.0"><defs><clipPath id="355652e6c7"><path d="M 790.953125 383 L 1060.433594 383 L 1060.433594 652.871094 L 790.953125 652.871094 Z M 790.953125 383 " clip-rule="nonzero"/></clipPath><clipPath id="84346ec98c"><path d="M 439.640625 97 L 946 97 L 946 644 L 439.640625 644 Z M 439.640625 97 " clip-rule="nonzero"/></clipPath></defs><g clip-path="url(#355652e6c7)"><path fill="#000000" d="M 995.1875 496.347656 L 916.925781 574.589844 C 912.140625 579.371094 905.886719 581.75 899.628906 581.75 C 893.371094 581.75 887.117188 579.371094 882.332031 574.589844 L 843.929688 536.195312 C 834.382812 526.652344 834.382812 511.175781 843.929688 501.613281 C 853.476562 492.070312 868.972656 492.070312 878.519531 501.613281 L 899.628906 522.738281 L 960.597656 461.785156 C 970.140625 452.222656 985.621094 452.222656 995.1875 461.785156 C 1004.734375 471.328125 1004.734375 486.804688 995.1875 496.347656 Z M 925.683594 383.484375 C 851.273438 383.484375 790.953125 443.789062 790.953125 518.175781 C 790.953125 592.566406 851.273438 652.890625 925.683594 652.890625 C 1000.089844 652.890625 1060.414062 592.566406 1060.414062 518.175781 C 1060.414062 443.789062 1000.089844 383.484375 925.683594 383.484375 " fill-opacity="1" fill-rule="nonzero"/></g><g clip-path="url(#84346ec98c)"><path fill="#000000" d="M 933.148438 197.5625 C 925.5625 190.964844 915.511719 187.980469 905.5625 189.371094 C 900.09375 190.136719 893.472656 190.742188 886.109375 190.742188 C 860.316406 190.742188 825.039062 183.539062 794.503906 152.027344 C 758.402344 114.800781 725.910156 97.429688 692.347656 97.429688 C 658.785156 97.429688 626.292969 114.800781 590.191406 152.027344 C 550.917969 192.578125 503.734375 192.863281 479.132812 189.371094 C 469.183594 187.980469 459.132812 190.964844 451.546875 197.5625 C 443.976562 204.121094 439.640625 213.621094 439.640625 223.648438 L 439.640625 300.902344 C 439.679688 303.34375 441.234375 362.320312 471.34375 433.824219 C 499.171875 499.957031 557.757812 589.601562 678.726562 641.070312 C 683.066406 642.925781 687.6875 643.8125 692.347656 643.8125 C 697.007812 643.8125 701.609375 642.925781 705.96875 641.070312 C 732.527344 629.75 756.082031 616.636719 776.949219 602.25 C 771.378906 592.445312 766.714844 581.992188 763.144531 571.058594 C 742.660156 585.707031 719.351562 599.003906 692.851562 610.261719 C 692.53125 610.402344 692.167969 610.402344 691.84375 610.261719 C 603.449219 572.632812 539.796875 509.320312 502.703125 422.019531 C 474.734375 356.265625 473.121094 300.722656 473.121094 300.539062 L 473.121094 223.648438 C 473.121094 223.527344 473.121094 223.164062 473.523438 222.804688 C 473.804688 222.582031 474.066406 222.519531 474.25 222.519531 L 474.472656 222.519531 C 505.367188 226.878906 564.640625 226.515625 614.265625 175.308594 C 643.226562 145.40625 668.777344 130.902344 692.347656 130.902344 C 704.113281 130.902344 716.425781 134.511719 729.359375 141.898438 C 742.335938 149.261719 755.960938 160.339844 770.429688 175.308594 C 820.054688 226.515625 879.328125 226.878906 910.222656 222.519531 C 910.40625 222.480469 910.769531 222.441406 911.171875 222.804688 C 911.578125 223.164062 911.578125 223.527344 911.578125 223.648438 L 911.578125 300.175781 C 911.578125 300.824219 910.992188 319.769531 904.875 348.578125 C 911.71875 347.710938 918.640625 347.308594 925.683594 347.308594 C 930.265625 347.308594 934.824219 347.488281 939.304688 347.851562 C 944.550781 320.171875 945.015625 302.09375 945.058594 300.539062 L 945.058594 223.648438 C 945.058594 213.621094 940.71875 204.121094 933.148438 197.5625 " fill-opacity="1" fill-rule="nonzero"/></g><path fill="#000000" d="M 725.648438 370.367188 L 725.648438 428.3125 C 725.648438 446.714844 710.753906 461.605469 692.347656 461.605469 C 673.921875 461.605469 659.050781 446.714844 659.050781 428.3125 L 659.050781 370.367188 C 647.929688 360.925781 640.722656 347.003906 640.722656 331.25 C 640.722656 302.761719 663.851562 279.660156 692.347656 279.660156 C 720.84375 279.660156 743.972656 302.761719 743.972656 331.25 C 743.972656 347.003906 736.765625 360.925781 725.648438 370.367188 Z M 740.398438 206.421875 C 712.648438 177.789062 697.554688 174.683594 692.347656 174.683594 C 687.140625 174.683594 672.027344 177.789062 644.296875 206.421875 C 601.695312 250.382812 553.601562 264.585938 514.953125 267.492188 L 514.953125 301.628906 C 515.195312 306.835938 518.222656 353.5625 541.191406 407.632812 C 571.644531 479.277344 622.460938 532.746094 692.347656 566.578125 C 716.324219 554.957031 737.089844 541.421875 755.011719 526.773438 C 754.871094 523.929688 754.769531 521.082031 754.769531 518.175781 C 754.769531 447.300781 798.199219 386.347656 859.832031 360.523438 C 868.226562 328.808594 869.597656 305.746094 869.71875 301.449219 L 869.71875 267.492188 C 831.132812 264.585938 783 250.382812 740.398438 206.421875 " fill-opacity="1" fill-rule="nonzero"/></svg>