<svg xmlns="http://www.w3.org/2000/svg" xmlns:xlink="http://www.w3.org/1999/xlink" width="2000" zoomAndPan="magnify" viewBox="0 0 1500 749.999995" height="1000" preserveAspectRatio="xMidYMid meet" version="1.0"><defs><clipPath id="f43ec8283c"><path d="M 472.65625 112.277344 L 1027.65625 112.277344 L 1027.65625 638 L 472.65625 638 Z M 472.65625 112.277344 " clip-rule="nonzero"/></clipPath></defs><g clip-path="url(#f43ec8283c)"><path fill="#000000" d="M 984.738281 511.589844 C 958.265625 485.117188 921.71875 468.675781 881.539062 468.675781 L 831.003906 468.675781 C 831.019531 468.007812 831.058594 467.34375 831.058594 466.675781 L 831.058594 442.421875 C 833.253906 440.519531 835.375 438.535156 837.429688 436.484375 C 843.671875 430.238281 849.265625 423.316406 854.078125 415.863281 C 879.375 412.964844 899.132812 404.140625 904.179688 380.648438 C 912.214844 379.066406 919.402344 375.097656 924.980469 369.519531 C 932.320312 362.179688 936.886719 352.039062 936.886719 340.894531 L 936.886719 295.980469 C 936.886719 284.824219 932.320312 274.695312 924.980469 267.355469 L 924.410156 266.828125 C 919.570312 262.167969 913.589844 258.710938 906.957031 256.878906 C 906.96875 256.714844 906.984375 256.558594 906.984375 256.394531 C 906.984375 216.695312 889.710938 180.648438 861.875 154.535156 C 834.167969 128.546875 796.027344 112.421875 754.109375 112.421875 L 746.214844 112.421875 C 704.296875 112.421875 666.15625 128.546875 638.460938 154.535156 C 610.628906 180.648438 593.355469 216.695312 593.355469 256.394531 C 593.355469 256.558594 593.367188 256.714844 593.382812 256.878906 C 586.511719 258.765625 580.339844 262.414062 575.398438 267.339844 L 575.359375 267.382812 C 568.019531 274.738281 563.453125 284.867188 563.453125 295.980469 L 563.453125 340.894531 C 563.453125 351.746094 567.796875 361.640625 574.832031 368.953125 L 575.359375 369.519531 C 582.699219 376.859375 592.828125 381.425781 603.980469 381.425781 C 613.363281 381.425781 622.003906 378.191406 628.886719 372.808594 C 633.6875 397.382812 645.816406 419.417969 662.894531 436.496094 C 666.101562 439.703125 669.472656 442.714844 673.011719 445.558594 L 673.011719 466.703125 C 673.011719 467.371094 673.039062 468.035156 673.066406 468.703125 L 618.785156 468.703125 C 578.589844 468.703125 542.058594 485.144531 515.585938 511.617188 C 489.097656 538.066406 472.65625 574.613281 472.65625 614.796875 L 472.65625 628.921875 C 472.65625 633.863281 476.664062 637.871094 481.605469 637.871094 L 1018.707031 637.871094 C 1023.644531 637.871094 1027.65625 633.863281 1027.65625 628.921875 L 1027.65625 614.796875 C 1027.65625 574.613281 1011.214844 538.066406 984.738281 511.589844 Z M 864.664062 395.453125 C 867.605469 388.210938 869.894531 380.621094 871.421875 372.78125 C 875.542969 376.015625 880.316406 378.46875 885.492188 379.914062 C 882.09375 387.808594 874.640625 392.609375 864.664062 395.453125 Z M 912.296875 279.996094 C 916.40625 284.101562 918.957031 289.75 918.957031 295.964844 L 918.957031 340.882812 C 918.957031 347.097656 916.40625 352.757812 912.296875 356.851562 C 908.191406 360.960938 902.53125 363.511719 896.3125 363.511719 C 890.097656 363.511719 884.4375 360.960938 880.34375 356.851562 L 880.300781 356.851562 C 876.222656 352.773438 873.683594 347.113281 873.683594 340.882812 L 873.683594 295.964844 C 873.683594 289.722656 876.222656 284.074219 880.300781 279.996094 L 880.34375 279.953125 C 884.421875 275.875 890.085938 273.335938 896.328125 273.335938 C 902.363281 273.335938 907.871094 275.707031 911.910156 279.566406 Z M 650.683594 167.535156 C 675.160156 144.570312 708.960938 130.320312 746.199219 130.320312 L 754.09375 130.320312 C 791.324219 130.320312 825.136719 144.570312 849.609375 167.535156 C 873.878906 190.304688 888.972656 221.664062 889.042969 256.117188 C 883.214844 257.183594 877.820312 259.515625 873.128906 262.816406 C 870.355469 233.457031 857.199219 206.996094 837.402344 187.195312 C 815.019531 164.816406 784.121094 150.914062 750.140625 150.914062 C 716.160156 150.914062 685.261719 164.816406 662.882812 187.195312 C 643.082031 206.996094 629.929688 233.457031 627.152344 262.816406 C 622.464844 259.515625 617.066406 257.183594 611.238281 256.117188 C 611.335938 221.664062 626.417969 190.304688 650.683594 167.535156 Z M 854.980469 261.597656 C 833.890625 261.515625 813.632812 258.808594 794.25 253.507812 C 772.050781 247.429688 750.863281 237.882812 730.714844 224.882812 C 727.261719 222.664062 722.585938 223.066406 719.574219 226.105469 C 710.652344 235.039062 699.207031 242.492188 685.21875 248.441406 C 673.703125 253.339844 660.453125 257.199219 645.539062 260.058594 C 648.757812 236.730469 659.632812 215.765625 675.5625 199.835938 C 694.710938 180.691406 721.128906 168.796875 750.167969 168.796875 C 779.210938 168.796875 805.628906 180.691406 824.773438 199.835938 C 841.035156 216.113281 852.039062 237.660156 854.980469 261.597656 Z M 603.980469 363.511719 C 597.765625 363.511719 592.105469 360.960938 588.011719 356.851562 L 587.59375 356.464844 C 583.738281 352.410156 581.367188 346.917969 581.367188 340.882812 L 581.367188 295.964844 C 581.367188 289.722656 583.90625 284.074219 587.984375 279.996094 L 588.027344 279.953125 C 592.105469 275.875 597.765625 273.335938 604.011719 273.335938 C 610.253906 273.335938 615.902344 275.875 619.980469 279.953125 L 619.980469 279.996094 C 624.085938 284.101562 626.640625 289.75 626.640625 295.964844 L 626.640625 340.882812 C 626.640625 347.097656 624.085938 352.757812 619.980469 356.851562 C 615.859375 360.960938 610.199219 363.511719 603.980469 363.511719 Z M 644.511719 349.21875 L 644.511719 278.429688 C 662.453125 275.277344 678.351562 270.769531 692.183594 264.871094 C 705.726562 259.113281 717.3125 252.007812 726.957031 243.601562 C 746.8125 255.671875 767.679688 264.71875 789.558594 270.699219 C 810.761719 276.5 832.835938 279.414062 855.800781 279.425781 L 855.800781 349.207031 C 855.800781 367.09375 851.277344 383.964844 843.351562 398.769531 C 829.601562 399.6875 813.992188 399.117188 798.632812 398.535156 L 795.5 398.421875 C 794.097656 393.832031 791.628906 389.710938 788.378906 386.378906 C 783.121094 380.996094 775.851562 377.652344 767.859375 377.652344 C 759.867188 377.652344 752.597656 380.980469 747.339844 386.378906 C 742.148438 391.691406 738.929688 399.019531 738.929688 407.082031 C 738.929688 415.144531 742.148438 422.46875 747.339844 427.785156 C 752.597656 433.167969 759.867188 436.511719 767.859375 436.511719 C 775.851562 436.511719 783.121094 433.179688 788.378906 427.785156 C 791.503906 424.578125 793.890625 420.652344 795.316406 416.28125 L 798.011719 416.378906 C 809.054688 416.792969 820.195312 417.210938 830.90625 417.128906 C 828.953125 419.445312 826.910156 421.691406 824.773438 423.84375 C 805.628906 442.992188 779.210938 454.882812 750.167969 454.882812 C 732.535156 454.882812 715.882812 450.484375 701.230469 442.753906 C 696.375 440.117188 691.753906 437.09375 687.425781 433.734375 C 686.84375 433.292969 686.21875 432.929688 685.582031 432.640625 C 682.070312 429.90625 678.710938 426.980469 675.5625 423.84375 C 656.402344 404.679688 644.511719 378.261719 644.511719 349.21875 Z M 778.875 407.082031 C 778.875 410.328125 777.613281 413.253906 775.574219 415.335938 C 773.605469 417.363281 770.855469 418.613281 767.832031 418.613281 C 764.808594 418.613281 762.058594 417.363281 760.089844 415.335938 C 758.050781 413.253906 756.789062 410.328125 756.789062 407.082031 C 756.789062 403.835938 758.050781 400.90625 760.089844 398.824219 C 762.058594 396.800781 764.808594 395.550781 767.832031 395.550781 C 770.855469 395.550781 773.605469 396.800781 775.574219 398.824219 C 777.613281 400.90625 778.875 403.835938 778.875 407.082031 Z M 699.554688 461.863281 C 703.1875 463.539062 706.90625 465.066406 710.722656 466.371094 C 722.101562 470.285156 734.253906 472.476562 746.851562 472.710938 C 746.976562 472.710938 747.101562 472.710938 747.226562 472.726562 C 747.824219 472.738281 748.40625 472.765625 749.003906 472.765625 L 755.023438 472.765625 C 768.386719 472.765625 781.277344 470.519531 793.320312 466.386719 C 800.214844 464.011719 806.847656 461 813.132812 457.433594 L 813.132812 466.675781 C 813.132812 482.964844 806.460938 497.769531 795.71875 508.511719 C 784.980469 519.25 770.164062 525.925781 753.886719 525.925781 L 750.15625 525.925781 C 733.867188 525.925781 719.0625 519.25 708.320312 508.511719 C 697.582031 497.769531 690.910156 482.953125 690.910156 466.675781 L 690.910156 457.53125 C 693.726562 459.074219 696.613281 460.53125 699.554688 461.863281 Z M 490.554688 614.796875 C 490.554688 579.539062 504.984375 547.488281 528.222656 524.230469 C 551.464844 500.988281 583.53125 486.558594 618.785156 486.558594 L 675.644531 486.558594 C 679.210938 499.824219 686.21875 511.703125 695.667969 521.152344 C 707.640625 533.125 723.542969 541.203125 741.207031 543.269531 L 741.207031 619.957031 L 490.554688 619.957031 Z M 1009.757812 619.972656 L 759.105469 619.972656 L 759.105469 543.628906 C 778.265625 542.339844 795.566406 534 808.386719 521.164062 C 817.835938 511.714844 824.84375 499.824219 828.410156 486.574219 L 881.523438 486.574219 C 916.78125 486.574219 948.832031 501.003906 972.070312 524.246094 C 995.3125 547.488281 1009.742188 579.554688 1009.742188 614.808594 L 1009.742188 619.972656 Z M 1009.757812 619.972656 " fill-opacity="1" fill-rule="nonzero"/></g></svg>