<svg xmlns="http://www.w3.org/2000/svg" xmlns:xlink="http://www.w3.org/1999/xlink" width="2000" zoomAndPan="magnify" viewBox="0 0 1500 749.999995" height="1000" preserveAspectRatio="xMidYMid meet" version="1.0"><defs><g/><clipPath id="4bceafb01b"><path d="M 1190 354 L 1326.421875 354 L 1326.421875 471 L 1190 471 Z M 1190 354 " clip-rule="nonzero"/></clipPath><clipPath id="fb79d9104d"><path d="M 1236 431 L 1301 431 L 1301 496.386719 L 1236 496.386719 Z M 1236 431 " clip-rule="nonzero"/></clipPath><clipPath id="0191ade2c4"><path d="M 1094 431 L 1159 431 L 1159 496.386719 L 1094 496.386719 Z M 1094 431 " clip-rule="nonzero"/></clipPath><clipPath id="b157761268"><path d="M 1016.671875 418 L 1108 418 L 1108 432 L 1016.671875 432 Z M 1016.671875 418 " clip-rule="nonzero"/></clipPath><clipPath id="4cd647e065"><path d="M 1068 315.636719 L 1237 315.636719 L 1237 471 L 1068 471 Z M 1068 315.636719 " clip-rule="nonzero"/></clipPath><clipPath id="f0cd3eb350"><path d="M 773.90625 173.433594 L 837.65625 173.433594 L 837.65625 249.933594 L 773.90625 249.933594 Z M 773.90625 173.433594 " clip-rule="nonzero"/></clipPath></defs><g fill="#ff914d" fill-opacity="1"><g transform="translate(173.880143, 480.190984)"><g><path d="M 3.375 0 L 45 -180.53125 L 18.46875 -180.53125 L 28.359375 -223.453125 L 126.15625 -223.453125 L 116.28125 -180.53125 L 89.75 -180.53125 L 48.125 0 Z M 3.375 0 "/></g></g></g><g fill="#ff914d" fill-opacity="1"><g transform="translate(276.891464, 480.190984)"><g><path d="M 30.953125 -190.40625 L 76.484375 -190.40625 L 71.796875 -169.34375 C 75.785156 -176.800781 81.070312 -182.566406 87.65625 -186.640625 C 94.25 -190.710938 101.707031 -192.75 110.03125 -192.75 L 101.1875 -154.78125 C 94.769531 -154.78125 87.488281 -153.867188 79.34375 -152.046875 C 71.195312 -150.222656 66.863281 -148.097656 66.34375 -145.671875 L 32.515625 0 L -13 0 Z M 30.953125 -190.40625 "/></g></g></g><g fill="#ff914d" fill-opacity="1"><g transform="translate(366.376029, 480.190984)"><g><path d="M 21.59375 2.078125 C 6.851562 2.078125 -2.117188 -2.816406 -5.328125 -12.609375 C -8.535156 -22.410156 -8.054688 -36.414062 -3.890625 -54.625 C -0.421875 -69.539062 4.171875 -80.984375 9.890625 -88.953125 C 15.609375 -96.929688 22.367188 -102.785156 30.171875 -106.515625 C 37.984375 -110.242188 49.519531 -114.363281 64.78125 -118.875 L 78.296875 -123.046875 L 78.296875 -123.5625 L 82.71875 -142.546875 C 83.9375 -147.578125 83.851562 -151.4375 82.46875 -154.125 C 81.082031 -156.8125 79 -158.15625 76.21875 -158.15625 C 73.789062 -158.15625 71.40625 -157.023438 69.0625 -154.765625 C 66.726562 -152.515625 65.125 -149.484375 64.25 -145.671875 L 61.65625 -134.21875 L 17.4375 -134.21875 L 18.734375 -140.46875 C 23.066406 -159.195312 30.519531 -172.550781 41.09375 -180.53125 C 51.675781 -188.507812 66.851562 -192.5 86.625 -192.5 C 102.40625 -192.5 114.285156 -188.378906 122.265625 -180.140625 C 130.242188 -171.898438 132.5 -160.238281 129.03125 -145.15625 L 95.734375 0 L 50.46875 0 L 55.671875 -22.625 C 51.503906 -14.820312 46.472656 -8.753906 40.578125 -4.421875 C 34.679688 -0.0859375 28.351562 2.078125 21.59375 2.078125 Z M 47.609375 -33.296875 C 51.078125 -33.296875 53.894531 -34.722656 56.0625 -37.578125 C 58.226562 -40.441406 59.742188 -43.957031 60.609375 -48.125 L 72.84375 -101.1875 C 65.5625 -98.582031 59.835938 -95.285156 55.671875 -91.296875 C 51.503906 -87.316406 48.644531 -81.769531 47.09375 -74.65625 L 41.359375 -50.203125 C 38.765625 -38.929688 40.847656 -33.296875 47.609375 -33.296875 Z M 47.609375 -33.296875 "/></g></g></g><g fill="#ff914d" fill-opacity="1"><g transform="translate(492.018578, 480.190984)"><g><path d="M 44.234375 2.078125 C 23.421875 2.078125 9.628906 -3.207031 2.859375 -13.78125 C -3.898438 -24.363281 -4.765625 -40.582031 0.265625 -62.4375 L 13.796875 -121.21875 C 17.609375 -137.695312 22.460938 -151.09375 28.359375 -161.40625 C 34.253906 -171.726562 42.015625 -179.488281 51.640625 -184.6875 C 61.265625 -189.894531 73.535156 -192.5 88.453125 -192.5 C 104.753906 -192.5 117.066406 -188.25 125.390625 -179.75 C 133.710938 -171.25 136.050781 -159.367188 132.40625 -144.109375 L 125.90625 -114.96875 L 79.609375 -114.96875 L 85.59375 -141.765625 C 86.800781 -146.796875 87.015625 -150.65625 86.234375 -153.34375 C 85.453125 -156.03125 83.066406 -157.375 79.078125 -157.375 C 71.617188 -157.375 66.675781 -152.085938 64.25 -141.515625 L 42.921875 -49.15625 C 41.878906 -44.820312 41.921875 -41.140625 43.046875 -38.109375 C 44.179688 -35.078125 46.566406 -33.5625 50.203125 -33.5625 C 53.847656 -33.5625 56.925781 -35.035156 59.4375 -37.984375 C 61.957031 -40.929688 63.648438 -44.742188 64.515625 -49.421875 L 71.796875 -81.421875 L 118.109375 -81.421875 L 110.296875 -48.125 C 106.648438 -32.519531 98.757812 -20.25 86.625 -11.3125 C 74.488281 -2.382812 60.359375 2.078125 44.234375 2.078125 Z M 44.234375 2.078125 "/></g></g></g><g fill="#ff914d" fill-opacity="1"><g transform="translate(619.742214, 480.190984)"><g><path d="M -16.640625 0 L 35.375 -224.75 L 80.390625 -224.75 L 57.234375 -124.859375 L 94.171875 -190.40625 L 141.25 -190.40625 L 93.65625 -107.6875 L 105.09375 0 L 56.71875 0 L 49.171875 -89.75 L 28.359375 0 Z M -16.640625 0 "/></g></g></g><g fill="#000000" fill-opacity="1"><g transform="translate(747.466053, 480.190984)"><g><path d="M -17.6875 0 L 33.828125 -223.453125 L 77 -223.453125 L 25.5 0 Z M -17.6875 0 "/></g></g></g><g fill="#000000" fill-opacity="1"><g transform="translate(806.515435, 480.190984)"><g><path d="M 21.59375 -147.484375 L 13.53125 -147.484375 L 21.59375 -182.09375 L 29.40625 -182.09375 L 32.515625 -195.09375 C 37.203125 -215.550781 49.773438 -225.78125 70.234375 -225.78125 C 79.953125 -225.78125 87.5 -224.566406 92.875 -222.140625 L 86.359375 -194.046875 C 84.804688 -194.566406 83.507812 -194.828125 82.46875 -194.828125 C 80.039062 -194.828125 78.257812 -193.957031 77.125 -192.21875 C 76 -190.488281 75.003906 -187.890625 74.140625 -184.421875 L 73.625 -182.09375 L 83.5 -182.09375 L 75.4375 -146.96875 L 66.59375 -146.96875 L 32.78125 0 L -12.484375 0 Z M 21.59375 -147.484375 "/></g></g></g><g fill="#000000" fill-opacity="1"><g transform="translate(879.351697, 480.190984)"><g><path d="M -13.265625 2.859375 L 8.59375 2.859375 C 11.707031 2.859375 13.613281 1.554688 14.3125 -1.046875 C 14.488281 -2.253906 14.578125 -3.207031 14.578125 -3.90625 L 28.09375 -190.40625 L 71.546875 -190.40625 L 58.53125 -97.546875 L 51.765625 -50.203125 L 67.640625 -97.546875 L 99.375 -190.40625 L 143.078125 -190.40625 L 61.390625 9.890625 C 58.441406 17.335938 54.671875 22.835938 50.078125 26.390625 C 45.484375 29.953125 39.195312 31.734375 31.21875 31.734375 L -20.03125 31.734375 Z M -13.265625 2.859375 "/></g></g></g><path fill="#000000" d="M 1100.5625 470.535156 L 1074.75 470.535156 C 1071.1875 470.535156 1068.296875 467.644531 1068.296875 464.082031 C 1068.296875 460.523438 1071.1875 457.632812 1074.75 457.632812 L 1100.5625 457.632812 C 1104.125 457.632812 1107.015625 460.523438 1107.015625 464.082031 C 1107.015625 467.644531 1104.125 470.535156 1100.5625 470.535156 Z M 1100.5625 470.535156 " fill-opacity="1" fill-rule="nonzero"/><g clip-path="url(#4bceafb01b)"><path fill="#000000" d="M 1310.289062 470.535156 L 1294.15625 470.535156 C 1290.59375 470.535156 1287.703125 467.644531 1287.703125 464.082031 C 1287.703125 460.523438 1290.59375 457.632812 1294.15625 457.632812 L 1304.933594 457.632812 L 1313.628906 411.277344 C 1313.515625 387.558594 1293.25 367.300781 1268.34375 367.300781 L 1225.972656 367.300781 L 1205.4375 457.632812 L 1242.53125 457.632812 C 1246.09375 457.632812 1248.984375 460.523438 1248.984375 464.082031 C 1248.984375 467.644531 1246.09375 470.535156 1242.53125 470.535156 L 1197.359375 470.535156 C 1195.398438 470.535156 1193.539062 469.644531 1192.3125 468.109375 C 1191.085938 466.585938 1190.621094 464.574219 1191.058594 462.664062 L 1214.523438 359.429688 C 1215.195312 356.472656 1217.800781 354.394531 1220.820312 354.394531 L 1268.34375 354.394531 C 1300.363281 354.394531 1326.421875 380.449219 1326.421875 412.464844 L 1316.625 465.269531 C 1316.058594 468.328125 1313.398438 470.535156 1310.289062 470.535156 Z M 1310.289062 470.535156 " fill-opacity="1" fill-rule="nonzero"/></g><g clip-path="url(#fb79d9104d)"><path fill="#000000" d="M 1268.34375 496.34375 C 1250.558594 496.34375 1236.078125 481.878906 1236.078125 464.082031 C 1236.078125 446.289062 1250.558594 431.824219 1268.34375 431.824219 C 1286.128906 431.824219 1300.609375 446.289062 1300.609375 464.082031 C 1300.609375 481.878906 1286.128906 496.34375 1268.34375 496.34375 Z M 1268.34375 444.726562 C 1257.667969 444.726562 1248.984375 453.410156 1248.984375 464.082031 C 1248.984375 474.757812 1257.667969 483.441406 1268.34375 483.441406 C 1279.015625 483.441406 1287.703125 474.757812 1287.703125 464.082031 C 1287.703125 453.410156 1279.015625 444.726562 1268.34375 444.726562 Z M 1268.34375 444.726562 " fill-opacity="1" fill-rule="nonzero"/></g><g clip-path="url(#0191ade2c4)"><path fill="#000000" d="M 1126.375 496.34375 C 1108.589844 496.34375 1094.109375 481.878906 1094.109375 464.082031 C 1094.109375 446.289062 1108.589844 431.824219 1126.375 431.824219 C 1144.160156 431.824219 1158.640625 446.289062 1158.640625 464.082031 C 1158.640625 481.878906 1144.160156 496.34375 1126.375 496.34375 Z M 1126.375 444.726562 C 1115.699219 444.726562 1107.015625 453.410156 1107.015625 464.082031 C 1107.015625 474.757812 1115.699219 483.441406 1126.375 483.441406 C 1137.046875 483.441406 1145.734375 474.757812 1145.734375 464.082031 C 1145.734375 453.410156 1137.046875 444.726562 1126.375 444.726562 Z M 1126.375 444.726562 " fill-opacity="1" fill-rule="nonzero"/></g><path fill="#000000" d="M 1100.5625 354.394531 L 1048.9375 354.394531 C 1045.375 354.394531 1042.484375 351.503906 1042.484375 347.941406 C 1042.484375 344.382812 1045.375 341.492188 1048.9375 341.492188 L 1100.5625 341.492188 C 1104.125 341.492188 1107.015625 344.382812 1107.015625 347.941406 C 1107.015625 351.503906 1104.125 354.394531 1100.5625 354.394531 Z M 1100.5625 354.394531 " fill-opacity="1" fill-rule="nonzero"/><path fill="#000000" d="M 1100.5625 393.109375 L 1036.03125 393.109375 C 1032.46875 393.109375 1029.578125 390.21875 1029.578125 386.65625 C 1029.578125 383.09375 1032.46875 380.203125 1036.03125 380.203125 L 1100.5625 380.203125 C 1104.125 380.203125 1107.015625 383.09375 1107.015625 386.65625 C 1107.015625 390.21875 1104.125 393.109375 1100.5625 393.109375 Z M 1100.5625 393.109375 " fill-opacity="1" fill-rule="nonzero"/><g clip-path="url(#b157761268)"><path fill="#000000" d="M 1100.5625 431.824219 L 1023.125 431.824219 C 1019.5625 431.824219 1016.671875 428.933594 1016.671875 425.371094 C 1016.671875 421.808594 1019.5625 418.917969 1023.125 418.917969 L 1100.5625 418.917969 C 1104.125 418.917969 1107.015625 421.808594 1107.015625 425.371094 C 1107.015625 428.933594 1104.125 431.824219 1100.5625 431.824219 Z M 1100.5625 431.824219 " fill-opacity="1" fill-rule="nonzero"/></g><g clip-path="url(#4cd647e065)"><path fill="#000000" d="M 1197.359375 470.535156 L 1152.1875 470.535156 C 1148.625 470.535156 1145.734375 467.644531 1145.734375 464.082031 C 1145.734375 460.523438 1148.625 457.632812 1152.1875 457.632812 L 1192.207031 457.632812 L 1221.53125 328.585938 L 1074.75 328.585938 C 1071.1875 328.585938 1068.296875 325.695312 1068.296875 322.132812 C 1068.296875 318.574219 1071.1875 315.683594 1074.75 315.683594 L 1229.625 315.683594 C 1231.585938 315.683594 1233.445312 316.574219 1234.671875 318.109375 C 1235.894531 319.628906 1236.359375 321.644531 1235.921875 323.554688 L 1203.65625 465.503906 C 1202.984375 468.457031 1200.367188 470.535156 1197.359375 470.535156 Z M 1197.359375 470.535156 " fill-opacity="1" fill-rule="nonzero"/></g><g clip-path="url(#f0cd3eb350)"><path fill="#000000" d="M 805.773438 186.160156 C 813.222656 186.160156 819.257812 192.21875 819.257812 199.691406 C 819.257812 207.164062 813.222656 213.222656 805.773438 213.222656 C 798.328125 213.222656 792.289062 207.164062 792.289062 199.691406 C 792.289062 192.21875 798.328125 186.160156 805.773438 186.160156 Z M 806.996094 224.539062 L 806.996094 249.9375 L 831.957031 240.195312 L 831.957031 224.316406 L 812.441406 231.929688 C 811.871094 232.152344 811.242188 231.914062 810.945312 231.402344 Z M 804.550781 249.9375 L 804.550781 224.539062 L 800.601562 231.402344 C 800.289062 231.949219 799.617188 232.160156 799.054688 231.910156 L 779.589844 224.316406 L 779.589844 240.195312 Z M 832.648438 210.792969 L 807.542969 220.589844 L 812.535156 229.269531 L 837.640625 219.472656 Z M 804.007812 220.589844 L 778.898438 210.792969 L 773.90625 219.472656 L 799.011719 229.269531 Z M 805.773438 215.679688 C 799.078125 215.679688 793.34375 211.53125 790.988281 205.65625 L 781.730469 209.269531 L 805.773438 218.652344 L 829.816406 209.269531 L 820.558594 205.65625 C 818.203125 211.53125 812.472656 215.679688 805.773438 215.679688 Z M 830.394531 198.789062 C 831.070312 198.789062 831.617188 199.335938 831.617188 200.015625 C 831.617188 200.691406 831.070312 201.242188 830.394531 201.242188 L 824.664062 201.242188 C 823.988281 201.242188 823.441406 200.691406 823.441406 200.015625 C 823.441406 199.335938 823.988281 198.789062 824.664062 198.789062 Z M 804.550781 174.660156 C 804.550781 173.984375 805.097656 173.433594 805.773438 173.433594 C 806.449219 173.433594 806.996094 173.984375 806.996094 174.660156 L 806.996094 180.410156 C 806.996094 181.089844 806.449219 181.636719 805.773438 181.636719 C 805.097656 181.636719 804.550781 181.089844 804.550781 180.410156 Z M 792.203125 178.460938 C 791.871094 177.878906 792.070312 177.128906 792.652344 176.792969 C 793.238281 176.457031 793.980469 176.660156 794.316406 177.246094 L 797.179688 182.222656 C 797.515625 182.808594 797.3125 183.554688 796.730469 183.890625 C 796.148438 184.226562 795.402344 184.027344 795.070312 183.441406 Z M 783.402344 187.957031 C 782.820312 187.617188 782.621094 186.867188 782.957031 186.285156 C 783.296875 185.699219 784.042969 185.5 784.625 185.835938 L 789.585938 188.710938 C 790.167969 189.050781 790.367188 189.800781 790.03125 190.386719 C 789.691406 190.96875 788.945312 191.171875 788.363281 190.832031 Z M 780.511719 200.597656 C 779.835938 200.597656 779.289062 200.046875 779.289062 199.367188 C 779.289062 198.691406 779.835938 198.140625 780.511719 198.140625 L 786.238281 198.140625 C 786.914062 198.140625 787.460938 198.691406 787.460938 199.367188 C 787.460938 200.046875 786.914062 200.597656 786.238281 200.597656 Z M 817.144531 177.566406 C 817.480469 176.984375 818.226562 176.78125 818.808594 177.117188 C 819.390625 177.453125 819.59375 178.199219 819.257812 178.785156 L 816.394531 183.765625 C 816.058594 184.347656 815.3125 184.550781 814.730469 184.214844 C 814.148438 183.878906 813.945312 183.132812 814.28125 182.546875 Z M 826.601562 186.398438 C 827.183594 186.058594 827.929688 186.257812 828.269531 186.84375 C 828.605469 187.429688 828.40625 188.175781 827.824219 188.515625 L 822.863281 191.390625 C 822.28125 191.730469 821.535156 191.53125 821.195312 190.945312 C 820.859375 190.359375 821.058594 189.609375 821.640625 189.273438 Z M 810.878906 193.519531 L 802.890625 201.539062 L 800.164062 198.09375 C 799.496094 197.246094 798.269531 197.105469 797.425781 197.78125 C 796.582031 198.453125 796.441406 199.683594 797.113281 200.53125 L 801.121094 205.597656 C 801.816406 206.59375 803.246094 206.730469 804.109375 205.863281 L 813.644531 196.296875 C 814.40625 195.527344 814.40625 194.285156 813.644531 193.519531 C 812.878906 192.753906 811.644531 192.753906 810.878906 193.519531 Z M 810.878906 193.519531 " fill-opacity="1" fill-rule="evenodd"/></g></svg>